<svg xmlns="http://www.w3.org/2000/svg" width="40" height="40" viewBox="0 0 40 40">
    <path fill="#0DC09D" d="M0 7.49C6.28 7.91 11.32 12.96 11.72 19.25H19.06C18.65 8.9 10.35.58 0 .15V7.49Z"/>
    <path fill="#0DC09D" d="M11.76 20.93C11.34 27.22 6.3 32.25 0 32.65V39.99C10.35 39.58 18.67 31.27 19.1 20.93H11.76Z"/>
    <path fill="#0DC09D" d="M28.08 19.21C28.5 12.92 33.55 7.89 39.84 7.49V.15C29.49.56 21.17 8.86 20.74 19.21H28.08Z"/>
    <path fill="#0DC09D" d="M39.84 32.65C33.55 32.23 28.51 27.18 28.12 20.89H20.78C21.19 31.24 29.5 39.56 39.84 39.99V32.65Z"/>
</svg>
